{"title":"Kaanchi (2013) Malayalam Movie DVDRip XviD - Exclusive","uid":9388195,"size":735576133,"categoryP":"video","categoryS":"movies","magnet":"?xt=urn:btih:79530bf37ae893b86ace01e998e3bb350498bbc9&amp;dn=Kaanchi+%282013%29+Malayalam+Movie+DVDRip+XviD+-+Exclusive&amp;tr=udp%3A%2F%2Ftracker.openbittorrent.com%3A80&amp;tr=udp%3A%2F%2Fopen.demonii.com%3A1337&amp;tr=udp%3A%2F%2Ftracker.coppersurfer.tk%3A6969&amp;tr=udp%3A%2F%2Fexodus.desync.com%3A6969","seeders":1,"leechers":1,"uploader":"tykoon123","files":-1,"time":1387836532,"description":" &lt;a href=&quot;http://megaimg.com/images/11115547888315842353.jpg&quot; rel=&quot;nofollow&quot; target=&quot;_NEW&quot;&gt;http://megaimg.com/images/11115547888315842353.jpg&lt;/a&gt;\n\nInfo:\nDirector: G.N.Krishnakumar\nProducer: Haneef Muhammed\nMusic Director: Ronnie Raphel\nCast: Indrajith, Murali Gopy, Maria John, Archana Gupta, P Balachandran\n\n\nFormat profile : Base Media\nCodec ID : isom\nFile size : 701 MiB\nDuration : 2h 22mn\nOverall bit rate mode : Variable\nOverall bit rate : 687 Kbps\nEncoded date : UTC 2013-12-23 15:29:59\nTagged date : UTC 2013-12-23 15:29:59\n\nVideo\nID : 1\nFormat : AVC\nFormat/Info : Advanced Video Codec\nFormat profile : &lt;a class=&quot;__cf_email__&quot; href=&quot;/cdn-cgi/l/email-protection&quot; data-cfemail=&quot;f4bc9d939cb4b8c7dac4&quot;&gt;[email&amp;#160;protected]&lt;/a&gt;&lt;script cf-hash='f9e31' type=&quot;text/javascript&quot;&gt;\n/* &lt;![CDATA[ */!function(){try{var t=&quot;currentScript&quot;in document?document.currentScript:function(){for(var t=document.getElementsByTagName(&quot;script&quot;),e=t.length;e--;)if(t[e].getAttribute(&quot;cf-hash&quot;))return t[e]}();if(t&amp;&amp;t.previousSibling){var e,r,n,i,c=t.previousSibling,a=c.getAttribute(&quot;data-cfemail&quot;);if(a){for(e=&quot;&quot;,r=parseInt(a.substr(0,2),16),n=2;a.length-n;n+=2)i=parseInt(a.substr(n,2),16)^r,e+=String.fromCharCode(i);e=document.createTextNode(e),c.parentNode.replaceChild(e,c)}}}catch(u){}}();/* ]]&gt; */&lt;/script&gt;\nFormat settings, CABAC : Yes\nFormat settings, ReFrames : 8 frames\nCodec ID : avc1\nCodec ID/Info : Advanced Video Coding\nDuration : 2h 22mn\nBit rate : 587 Kbps\nMaximum bit rate : 5 303 Kbps\nWidth : 672 pixels\nHeight : 288 pixels\nDisplay aspect ratio : 2.35:1\nFrame rate mode : Constant\nFrame rate : 23.976 fps\nColor space : YUV\nChroma subsampling : 4:2:0\nBit depth : 8 bits\nScan type : Progressive\nBits/(Pixel*Frame) : 0.127\nStream size : 599 MiB (85%)\nEncoded date : UTC 2013-12-23 15:29:59\nTagged date : UTC 2013-12-23 15:31:13\nColor primaries : BT.709-5, BT.1361, IEC 61966-2-4, SMPTE RP177\nMatrix coefficients : BT.709-5, BT.1361, IEC 61966-2-4 709, SMPTE RP177\n\nAudio\nID : 2\nFormat : AAC\nFormat/Info : Advanced Audio Codec\nFormat profile : LC\nCodec ID : 40\nDuration : 2h 22mn\nBit rate mode : Variable\nBit rate : 96.0 Kbps\nMaximum bit rate : 124 Kbps\nChannel(s) : 2 channels\nChannel positions : Front: L R\nSampling rate : 48.0 KHz\nCompression mode : Lossy\nStream size : 97.9 MiB (14%)\nEncoded date : UTC 2013-12-23 11:34:06\nTagged date : UTC 2013-12-23 15:31:13\n\n\nScreens: &lt;a href=&quot;\nhttp://megaimg.com/images/46075080227230093109.jpg&quot; rel=&quot;nofollow&quot; target=&quot;_NEW&quot;&gt;\nhttp://megaimg.com/images/46075080227230093109.jpg&lt;/a&gt; &lt;a href=&quot;\nhttp://megaimg.com/images/59519794732362764942.png&quot; rel=&quot;nofollow&quot; target=&quot;_NEW&quot;&gt;\nhttp://megaimg.com/images/59519794732362764942.png&lt;/a&gt; &lt;a href=&quot;\nhttp://megaimg.com/images/34388712055524873542.png&quot; rel=&quot;nofollow&quot; target=&quot;_NEW&quot;&gt;\nhttp://megaimg.com/images/34388712055524873542.png&lt;/a&gt; &lt;a href=&quot;\nhttp://megaimg.com/images/51682611747000112619.png&quot; rel=&quot;nofollow&quot; target=&quot;_NEW&quot;&gt;\nhttp://megaimg.com/images/51682611747000112619.png&lt;/a&gt; &lt;a href=&quot;\nhttp://megaimg.com/images/51003065680778166806.png&quot; rel=&quot;nofollow&quot; target=&quot;_NEW&quot;&gt;\nhttp://megaimg.com/images/51003065680778166806.png&lt;/a&gt;\n\n\n","torrent":{"xt":"urn:btih:79530bf37ae893b86ace01e998e3bb350498bbc9","amp;dn":"Kaanchi+%282013%29+Malayalam+Movie+DVDRip+XviD+-+Exclusive","amp;tr":["udp%3A%2F%2Ftracker.openbittorrent.com%3A80","udp%3A%2F%2Fopen.demonii.com%3A1337","udp%3A%2F%2Ftracker.coppersurfer.tk%3A6969","udp%3A%2F%2Fexodus.desync.com%3A6969"],"infoHash":"79530bf37ae893b86ace01e998e3bb350498bbc9","infoHashBuffer":{"type":"Buffer","data":[121,83,11,243,122,232,147,184,106,206,1,233,152,227,187,53,4,152,187,201]},"announce":[],"urlList":[]}}